<svg width="16" height="16" viewBox="0 0 16 16" fill="none" xmlns="http://www.w3.org/2000/svg">
<path d="M5.99962 12.1671C5.93248 12.1648 5.86651 12.1488 5.80575 12.1202C5.74499 12.0915 5.69073 12.0508 5.64628 12.0004L2.31295 8.66705C2.2494 8.62585 2.19603 8.57074 2.15689 8.50589C2.11775 8.44105 2.09386 8.36815 2.08701 8.29272C2.08016 8.21729 2.09054 8.14128 2.11736 8.07045C2.14419 7.99961 2.18676 7.9358 2.24185 7.88382C2.29695 7.83184 2.36313 7.79306 2.43541 7.77041C2.50768 7.74775 2.58416 7.74181 2.65907 7.75304C2.73398 7.76427 2.80535 7.79236 2.86781 7.83521C2.93027 7.87806 2.98218 7.93454 3.01962 8.00039L5.99962 10.9604L12.9796 4.00039C13.0736 3.93946 13.1853 3.91185 13.2968 3.92197C13.4084 3.9321 13.5133 3.97937 13.5947 4.05623C13.6762 4.13308 13.7295 4.23506 13.7461 4.34581C13.7627 4.45657 13.7416 4.56969 13.6863 4.66705L6.35295 12.0004C6.30851 12.0508 6.25424 12.0915 6.19349 12.1202C6.13273 12.1488 6.06676 12.1648 5.99962 12.1671Z" fill="#0E0E41"/>
</svg>
