<svg width="32" height="32" viewBox="0 0 32 32" fill="none" xmlns="http://www.w3.org/2000/svg">
<rect width="32" height="32" rx="16" fill="white"/>
<rect width="32" height="32" rx="16" fill="url(#paint0_linear_3564_81764)"/>
<path d="M15.8871 11.9428C12.9422 10.3378 14.2031 7.06316 15.8691 5.8823C15.9472 5.82699 16.0528 5.82699 16.1309 5.8823C17.7969 7.06316 19.0579 10.3378 16.113 11.9428C16.0442 11.9803 15.9559 11.9803 15.8871 11.9428Z" fill="white"/>
<path d="M15.7393 20.2977V14.0469C14.9276 11.149 13.404 9.70282 11.0575 9.45747C11.0358 9.45736 11.0154 9.46591 11.0024 9.48262C9.44212 11.4856 10.5876 19.9863 15.7393 20.2977Z" fill="white"/>
<path d="M15.7393 22.1432V23.8022C12.7261 23.1473 11.4344 22.0079 12.3753 20.9021C12.4012 20.8716 12.3913 20.843 12.3523 20.8503C12.0705 20.9031 11.0906 21.1957 10.8983 21.2936C10.875 21.3054 10.8524 21.3328 10.8362 21.3535C10.3047 22.0307 12.8416 23.2595 15.0371 24.3228C15.2347 24.4185 15.4296 24.5129 15.6192 24.6054C15.6473 24.5964 15.6722 24.5874 15.6953 24.5782C15.6971 24.5936 15.6991 24.6097 15.7011 24.6266L15.7054 24.6618L15.7393 24.6731V26.1595C9.18509 25.5288 7.97169 21.174 8.63481 19.002C8.64293 18.9754 8.66571 18.9571 8.69586 18.9551C9.90919 18.8746 14.0819 19.7779 15.7393 22.1432Z" fill="white"/>
<path d="M16.3239 24.8175L16.301 24.8133V26.1555C22.8199 25.511 24.027 21.1695 23.3653 19.002C23.3571 18.9754 23.3344 18.9571 23.3042 18.9551C22.1006 18.8753 17.9846 19.7635 16.301 22.0868V23.7735C18.0921 22.1664 20.1096 20.3808 20.5083 21.1233C20.5208 21.1465 20.5369 21.1782 20.5385 21.2046C20.5525 21.4222 20.4365 22.451 20.3747 22.7347C20.3662 22.774 20.3363 22.772 20.3187 22.736C19.6747 21.4147 18.1137 22.2028 16.3239 24.8175Z" fill="white"/>
<path d="M16.301 20.2951V13.8122C17.082 11.0474 18.6076 9.67932 20.9424 9.45747C20.9641 9.45736 20.9845 9.46591 20.9975 9.48262C22.5538 11.4804 21.4184 19.9421 16.301 20.2951Z" fill="white"/>
<defs>
<linearGradient id="paint0_linear_3564_81764" x1="32" y1="16" x2="0" y2="16" gradientUnits="userSpaceOnUse">
<stop stop-color="#6A96EA"/>
<stop offset="1" stop-color="#B48CF6"/>
</linearGradient>
</defs>
</svg>
