<svg width="36" height="36" viewBox="0 0 36 36" fill="none" xmlns="http://www.w3.org/2000/svg">
<rect x="0.5" y="0.5" width="35" height="35" rx="7.5" fill="#FAFAFA"/>
<rect x="0.5" y="0.5" width="35" height="35" rx="7.5" stroke="#DCDCDC"/>
<path d="M18.1251 17.375V17.875H18.6251H23.8289C23.8629 17.876 23.8953 17.8899 23.9194 17.914C23.9432 17.9378 23.9571 17.9697 23.9584 18.0032C23.9575 18.0352 23.9445 18.0657 23.9218 18.0884C23.8984 18.1119 23.8666 18.125 23.8334 18.125H18.6251H18.1251V18.625V23.8334C18.1251 23.8665 18.1119 23.8983 18.0885 23.9217C18.0658 23.9444 18.0353 23.9575 18.0033 23.9583C17.9698 23.957 17.9379 23.9432 17.9141 23.9194C17.89 23.8953 17.8761 23.8629 17.8751 23.8289V18.625V18.125H17.3751H12.1667C12.1336 18.125 12.1018 18.1119 12.0784 18.0884C12.0549 18.065 12.0417 18.0332 12.0417 18C12.0417 17.9669 12.0549 17.9351 12.0784 17.9116C12.1018 17.8882 12.1336 17.875 12.1667 17.875H17.3751H17.8751V17.375V12.1667C17.8751 12.1335 17.8883 12.1017 17.9117 12.0783C17.9351 12.0549 17.9669 12.0417 18.0001 12.0417C18.0332 12.0417 18.065 12.0549 18.0885 12.0783C18.1119 12.1017 18.1251 12.1335 18.1251 12.1667V17.375Z" fill="#302D3D" stroke="#302D3D"/>
</svg>
