<svg width="40" height="40" viewBox="0 0 40 40" fill="none" xmlns="http://www.w3.org/2000/svg">
<rect width="40" height="40" rx="8" fill="#604BE8"/>
<path d="M22 25.75C21.9015 25.7504 21.8038 25.7312 21.7128 25.6934C21.6218 25.6557 21.5393 25.6001 21.47 25.53L16.47 20.53C16.3296 20.3893 16.2507 20.1987 16.2507 20C16.2507 19.8012 16.3296 19.6106 16.47 19.47L21.47 14.47C21.6122 14.3375 21.8002 14.2654 21.9945 14.2688C22.1888 14.2722 22.3742 14.3509 22.5116 14.4883C22.649 14.6258 22.7278 14.8111 22.7312 15.0054C22.7346 15.1997 22.6625 15.3878 22.53 15.53L18.06 20L22.53 24.47C22.6705 24.6106 22.7494 24.8012 22.7494 25C22.7494 25.1987 22.6705 25.3893 22.53 25.53C22.4608 25.6001 22.3782 25.6557 22.2872 25.6934C22.1962 25.7312 22.0986 25.7504 22 25.75Z" fill="#FAFAFA"/>
</svg>
