<svg width="36" height="36" viewBox="0 0 36 36" fill="none" xmlns="http://www.w3.org/2000/svg">
<rect x="0.5" y="0.5" width="35" height="35" rx="7.5" fill="#FAFAFA"/>
<rect x="0.5" y="0.5" width="35" height="35" rx="7.5" stroke="#DCDCDC"/>
<path d="M24.0416 16.2083H24.5416V15.7083V13.8333C24.5416 13.6455 24.467 13.4653 24.3341 13.3325L23.9806 13.686L24.3341 13.3325C24.2013 13.1996 24.0211 13.125 23.8333 13.125H12.1666C11.9787 13.125 11.7986 13.1996 11.6657 13.3325L11.6657 13.3325C11.5329 13.4653 11.4583 13.6455 11.4583 13.8333V15.7083V16.2083H11.9583H24.0416ZM11.9583 16.4583H11.4583V16.9583V22.1667C11.4583 22.3545 11.5329 22.5347 11.6657 22.6675L12.0193 22.314L11.6657 22.6675C11.7986 22.8004 11.9787 22.875 12.1666 22.875H23.8333C24.0211 22.875 24.2013 22.8004 24.3341 22.6675C24.467 22.5347 24.5416 22.3545 24.5416 22.1667V16.9583V16.4583H24.0416H11.9583ZM11.4914 13.1581C11.671 12.9785 11.9141 12.8768 12.1681 12.875H23.8317C24.0857 12.8768 24.3288 12.9785 24.5085 13.1581C24.6881 13.3378 24.7898 13.5809 24.7916 13.835V22.165C24.7898 22.4191 24.6881 22.6622 24.5085 22.8419C24.3288 23.0216 24.0857 23.1232 23.8316 23.125H12.1682C11.9142 23.1232 11.671 23.0216 11.4914 22.8419C11.3117 22.6622 11.21 22.4191 11.2083 22.1651V13.8349C11.21 13.5809 11.3117 13.3378 11.4914 13.1581Z" fill="#302D3D" stroke="#302D3D"/>
<path d="M15.5 18.8334H13.8333C13.6123 18.8334 13.4004 18.9212 13.2441 19.0775C13.0878 19.2337 13 19.4457 13 19.6667C13 19.8877 13.0878 20.0997 13.2441 20.256C13.4004 20.4122 13.6123 20.5 13.8333 20.5H15.5C15.721 20.5 15.933 20.4122 16.0893 20.256C16.2455 20.0997 16.3333 19.8877 16.3333 19.6667C16.3333 19.4457 16.2455 19.2337 16.0893 19.0775C15.933 18.9212 15.721 18.8334 15.5 18.8334Z" fill="#302D3D"/>
</svg>
