<svg width="25" height="24" viewBox="0 0 25 24" fill="none" xmlns="http://www.w3.org/2000/svg">
<path d="M7.94343 19.0193C7.60222 19.0197 7.36898 18.6747 7.49637 18.3582L8.57702 15.673C8.66302 15.4824 8.79235 15.3257 8.96502 15.203C9.13835 15.0804 9.33068 15.019 9.54202 15.019H11C11.5523 15.019 12 14.5713 12 14.019V11.1863C12 10.6418 11.5639 10.1996 11.0202 10.1706C9.16597 10.0718 7.57925 9.7983 6.26002 9.35003C4.71468 8.82469 3.94202 8.20803 3.94202 7.50003C3.94202 6.73869 4.76968 6.09636 6.42502 5.57302C8.08035 5.04969 10.1054 4.78802 12.5 4.78802C14.8987 4.78802 16.9247 5.04969 18.578 5.57302C20.2313 6.09636 21.058 6.73869 21.058 7.50003C21.058 8.22003 20.282 8.84002 18.73 9.36002C17.4068 9.80223 15.8234 10.0724 13.9797 10.1705C13.436 10.1995 13 10.6417 13 11.1862V14.019C13 14.5713 13.4477 15.019 14 15.019H15.458C15.6654 15.019 15.8567 15.0804 16.032 15.203C16.2067 15.3257 16.337 15.4824 16.423 15.673L17.5032 18.3583C17.6304 18.6745 17.3976 19.019 17.0568 19.019C16.86 19.019 16.6831 18.8992 16.61 18.7165L15.7825 16.6476C15.6306 16.268 15.2629 16.019 14.854 16.019H10.146C9.73715 16.019 9.36944 16.268 9.21757 16.6476L8.38994 18.7167C8.31689 18.8993 8.14011 19.0191 7.94343 19.0193ZM12.5 9.21103C14.296 9.21103 15.914 9.04369 17.354 8.70902C18.3166 8.48532 19.0289 8.23094 19.491 7.94587C19.8394 7.73095 19.8394 7.2671 19.491 7.05218C19.0289 6.76711 18.3166 6.51273 17.354 6.28903C15.914 5.95436 14.296 5.78736 12.5 5.78803C10.704 5.78803 9.08602 5.95536 7.64602 6.29002C6.68347 6.51373 5.97113 6.76811 5.50901 7.05318C5.1606 7.2681 5.1606 7.73195 5.50901 7.94687C5.97114 8.23194 6.68347 8.48632 7.64602 8.71003C9.08602 9.04469 10.704 9.21103 12.5 9.21103Z" fill="#302D3D" stroke="#302D3D" stroke-width="0.4"/>
</svg>
