<svg width="20" height="20" viewBox="0 0 20 20" fill="none" xmlns="http://www.w3.org/2000/svg">
<path d="M10.0001 12.7083C9.91795 12.7087 9.83658 12.6927 9.76074 12.6612C9.6849 12.6297 9.61611 12.5834 9.5584 12.525L5.39174 8.3583C5.30863 8.23672 5.27113 8.0897 5.28584 7.94317C5.30056 7.79664 5.36654 7.66001 5.47216 7.55738C5.57778 7.45475 5.71625 7.39271 5.86314 7.38221C6.01004 7.3717 6.15592 7.41341 6.27507 7.49997L10.0001 11.2L13.7251 7.49997C13.8425 7.42381 13.9822 7.38929 14.1216 7.40195C14.261 7.41461 14.3921 7.4737 14.494 7.56977C14.5958 7.66584 14.6624 7.79331 14.6832 7.93176C14.7039 8.0702 14.6776 8.21161 14.6084 8.3333L10.4417 12.5C10.3862 12.5629 10.3183 12.6139 10.2424 12.6497C10.1665 12.6855 10.084 12.7055 10.0001 12.7083Z" fill="#302D3D"/>
</svg>
