<svg width="24" height="24" viewBox="0 0 24 24" fill="none" xmlns="http://www.w3.org/2000/svg">
<path fill-rule="evenodd" clip-rule="evenodd" d="M17.0001 5.39978C18.1001 5.39978 19.0001 6.09978 19.0001 7.19978V10.3492L14.4801 15.9992H10.0001C10.0001 17.6592 8.66007 18.5998 7.00007 18.5998C5.34007 18.5998 4.0001 17.6592 4.0001 15.9992H2.20642V12.9992C2.20642 10.7892 3.7901 9.23356 6.0001 9.23356H10.0001V14.3998H13.8L17.206 9.64923V6.99923H14.0001V5.39978H17.0001ZM4.0001 12.9992V14.3998H8.0001V10.9992H6.0001C4.9001 10.9992 4.0001 11.8992 4.0001 12.9992ZM5.86664 15.9992C5.86664 16.5492 6.30487 17.1157 7.00007 17.1157C7.55007 17.1157 8.11041 16.5492 8.11041 15.9992H5.86664ZM10 6.38739H5.00004V8.00001H10V6.38739ZM16 16C16 14.34 17.34 13 19 13C20.66 13 22 14.34 22 16C22 17.66 20.66 19 19 19C17.34 19 16 17.66 16 16ZM18 16C18 16.55 18.45 17 19 17C19.55 17 20 16.55 20 16C20 15.45 19.55 15 19 15C18.45 15 18 15.45 18 16Z" fill="#302D3D"/>
</svg>
