<svg width="36" height="36" viewBox="0 0 36 36" fill="none" xmlns="http://www.w3.org/2000/svg">
<rect x="0.5" y="0.5" width="35" height="35" rx="7.5" fill="#FAFAFA"/>
<rect x="0.5" y="0.5" width="35" height="35" rx="7.5" stroke="#DCDCDC"/>
<path d="M18.125 17.375V17.875H18.625H23.8288C23.8628 17.8759 23.8952 17.8899 23.9193 17.914C23.9431 17.9378 23.957 17.9696 23.9583 18.0032C23.9574 18.0352 23.9444 18.0657 23.9217 18.0883C23.8982 18.1118 23.8664 18.125 23.8333 18.125H18.625H18.125V18.625V23.8333C18.125 23.8664 18.1118 23.8982 18.0883 23.9217C18.0657 23.9444 18.0352 23.9574 18.0032 23.9583C17.9696 23.957 17.9378 23.9431 17.914 23.9193C17.8899 23.8952 17.8759 23.8628 17.875 23.8288V18.625V18.125H17.375H12.1666C12.1335 18.125 12.1017 18.1118 12.0782 18.0883C12.0548 18.0649 12.0416 18.0331 12.0416 18C12.0416 17.9668 12.0548 17.935 12.0782 17.9116C12.1017 17.8881 12.1335 17.875 12.1666 17.875H17.375H17.875V17.375V12.1666C17.875 12.1335 17.8881 12.1017 17.9116 12.0782C17.935 12.0548 17.9668 12.0416 18 12.0416C18.0331 12.0416 18.0649 12.0548 18.0883 12.0782C18.1118 12.1017 18.125 12.1335 18.125 12.1666V17.375Z" fill="#302D3D" stroke="#302D3D"/>
</svg>
