<svg width="36" height="36" viewBox="0 0 36 36" fill="none" xmlns="http://www.w3.org/2000/svg">
<rect x="0.5" y="0.5" width="35" height="35" rx="7.5" fill="#FAFAFA"/>
<rect x="0.5" y="0.5" width="35" height="35" rx="7.5" stroke="#DCDCDC"/>
<path d="M11.0749 24.925L11.4263 24.5693C11.4132 24.5563 11.4031 24.5406 11.3968 24.5234C11.3905 24.5061 11.388 24.4876 11.3897 24.4693L11.39 24.4652L11.6483 21.2652L11.6483 21.2652L11.6486 21.2621C11.6505 21.2357 11.6622 21.2109 11.6812 21.1924L11.6813 21.1924L11.6868 21.1869L20.8974 11.9763C21.3137 11.5893 21.866 11.382 22.4343 11.3997L22.4343 11.3999L22.4461 11.4C23.0145 11.4044 23.5601 11.6238 23.9733 12.0139C24.3666 12.4212 24.5927 12.9614 24.6065 13.5275C24.6203 14.0921 24.4221 14.6412 24.0513 15.0666L14.8387 24.3124C14.8386 24.3126 14.8385 24.3127 14.8383 24.3128C14.8163 24.3346 14.7878 24.3486 14.7571 24.3526L11.7064 24.627L11.6662 24.5983L11.5031 24.6C11.4888 24.6002 11.4746 24.5975 11.4614 24.5921L11.2741 25.0557L11.4614 24.5921C11.4481 24.5868 11.4361 24.5789 11.4259 24.5688L11.0749 24.925ZM11.0749 24.925C11.0095 24.8603 10.9591 24.7819 10.9274 24.6955C10.8957 24.609 10.8835 24.5167 10.8916 24.425L11.0749 24.925ZM11.9892 21.1953L11.8573 21.3264L11.8431 21.5118L11.6681 23.7951L11.6229 24.385L12.212 24.3312L14.4954 24.1229L14.6758 24.1064L14.8038 23.9782L23.8872 14.8782L23.9018 14.8635L23.9152 14.8477C24.1541 14.565 24.3068 14.2196 24.3552 13.8527C24.4036 13.4857 24.3456 13.1126 24.1882 12.7776C24.0307 12.4426 23.7805 12.1599 23.4671 11.9629C23.1588 11.7692 22.8022 11.6666 22.4384 11.6666C22.1969 11.6537 21.9551 11.6884 21.727 11.7689C21.4931 11.8515 21.2782 11.9805 21.0954 12.1481L21.088 12.1549L21.0809 12.162L11.9892 21.1953Z" fill="#302D3D" stroke="#302D3D"/>
</svg>
