<svg width="48" height="48" viewBox="0 0 48 48" fill="none" xmlns="http://www.w3.org/2000/svg">
<rect x="0.5" y="0.5" width="47" height="47" rx="7.5" fill="white"/>
<rect x="0.5" y="0.5" width="47" height="47" rx="7.5" stroke="#D1D3D7"/>
<path d="M31 20.25H24C23.8011 20.25 23.6103 20.171 23.4697 20.0303C23.329 19.8897 23.25 19.6989 23.25 19.5C23.25 19.3011 23.329 19.1103 23.4697 18.9697C23.6103 18.829 23.8011 18.75 24 18.75H31C31.1989 18.75 31.3897 18.829 31.5303 18.9697C31.671 19.1103 31.75 19.3011 31.75 19.5C31.75 19.6989 31.671 19.8897 31.5303 20.0303C31.3897 20.171 31.1989 20.25 31 20.25Z" fill="#191A1C"/>
<path d="M22 20.25H17C16.8011 20.25 16.6103 20.171 16.4697 20.0303C16.329 19.8897 16.25 19.6989 16.25 19.5C16.25 19.3011 16.329 19.1103 16.4697 18.9697C16.6103 18.829 16.8011 18.75 17 18.75H22C22.1989 18.75 22.3897 18.829 22.5303 18.9697C22.671 19.1103 22.75 19.3011 22.75 19.5C22.75 19.6989 22.671 19.8897 22.5303 20.0303C22.3897 20.171 22.1989 20.25 22 20.25Z" fill="#191A1C"/>
<path d="M22 21.75C21.8019 21.7474 21.6126 21.6676 21.4725 21.5275C21.3324 21.3874 21.2526 21.1981 21.25 21V18C21.25 17.8011 21.329 17.6103 21.4697 17.4697C21.6103 17.329 21.8011 17.25 22 17.25C22.1989 17.25 22.3897 17.329 22.5303 17.4697C22.671 17.6103 22.75 17.8011 22.75 18V21C22.7474 21.1981 22.6676 21.3874 22.5275 21.5275C22.3874 21.6676 22.1981 21.7474 22 21.75Z" fill="#191A1C"/>
<path d="M31 29.25H24C23.8011 29.25 23.6103 29.171 23.4697 29.0303C23.329 28.8897 23.25 28.6989 23.25 28.5C23.25 28.3011 23.329 28.1103 23.4697 27.9697C23.6103 27.829 23.8011 27.75 24 27.75H31C31.1989 27.75 31.3897 27.829 31.5303 27.9697C31.671 28.1103 31.75 28.3011 31.75 28.5C31.75 28.6989 31.671 28.8897 31.5303 29.0303C31.3897 29.171 31.1989 29.25 31 29.25Z" fill="#191A1C"/>
<path d="M22 29.25H17C16.8011 29.25 16.6103 29.171 16.4697 29.0303C16.329 28.8897 16.25 28.6989 16.25 28.5C16.25 28.3011 16.329 28.1103 16.4697 27.9697C16.6103 27.829 16.8011 27.75 17 27.75H22C22.1989 27.75 22.3897 27.829 22.5303 27.9697C22.671 28.1103 22.75 28.3011 22.75 28.5C22.75 28.6989 22.671 28.8897 22.5303 29.0303C22.3897 29.171 22.1989 29.25 22 29.25Z" fill="#191A1C"/>
<path d="M22 30.75C21.8019 30.7474 21.6126 30.6676 21.4725 30.5275C21.3324 30.3874 21.2526 30.1981 21.25 30V27C21.25 26.8011 21.329 26.6103 21.4697 26.4697C21.6103 26.329 21.8011 26.25 22 26.25C22.1989 26.25 22.3897 26.329 22.5303 26.4697C22.671 26.6103 22.75 26.8011 22.75 27V30C22.7474 30.1981 22.6676 30.3874 22.5275 30.5275C22.3874 30.6676 22.1981 30.7474 22 30.75Z" fill="#191A1C"/>
<path d="M31 24.75H28C27.8011 24.75 27.6103 24.671 27.4697 24.5303C27.329 24.3897 27.25 24.1989 27.25 24C27.25 23.8011 27.329 23.6103 27.4697 23.4697C27.6103 23.329 27.8011 23.25 28 23.25H31C31.1989 23.25 31.3897 23.329 31.5303 23.4697C31.671 23.6103 31.75 23.8011 31.75 24C31.75 24.1989 31.671 24.3897 31.5303 24.5303C31.3897 24.671 31.1989 24.75 31 24.75Z" fill="#191A1C"/>
<path d="M26 24.75H17C16.8011 24.75 16.6103 24.671 16.4697 24.5303C16.329 24.3897 16.25 24.1989 16.25 24C16.25 23.8011 16.329 23.6103 16.4697 23.4697C16.6103 23.329 16.8011 23.25 17 23.25H26C26.1989 23.25 26.3897 23.329 26.5303 23.4697C26.671 23.6103 26.75 23.8011 26.75 24C26.75 24.1989 26.671 24.3897 26.5303 24.5303C26.3897 24.671 26.1989 24.75 26 24.75Z" fill="#191A1C"/>
<path d="M26 26.25C25.8019 26.2474 25.6126 26.1676 25.4725 26.0275C25.3324 25.8874 25.2526 25.6981 25.25 25.5V22.5C25.25 22.3011 25.329 22.1103 25.4697 21.9697C25.6103 21.829 25.8011 21.75 26 21.75C26.1989 21.75 26.3897 21.829 26.5303 21.9697C26.671 22.1103 26.75 22.3011 26.75 22.5V25.5C26.7474 25.6981 26.6676 25.8874 26.5275 26.0275C26.3874 26.1676 26.1981 26.2474 26 26.25Z" fill="#191A1C"/>
</svg>
