<svg width="36" height="36" viewBox="0 0 36 36" fill="none" xmlns="http://www.w3.org/2000/svg">
<rect x="0.5" y="0.5" width="35" height="35" rx="7.5" fill="#FAFAFA"/>
<rect x="0.5" y="0.5" width="35" height="35" rx="7.5" stroke="#DCDCDC"/>
<path d="M21.2449 21.245L20.8913 20.8915L21.2449 21.245C21.2683 21.2216 21.3001 21.2084 21.3333 21.2084H22.9999C23.4088 21.2084 23.8009 21.046 24.09 20.7569C24.3792 20.4678 24.5416 20.0756 24.5416 19.6667V16.3334C24.5416 15.9245 24.3792 15.5324 24.09 15.2433C23.8009 14.9542 23.4088 14.7917 22.9999 14.7917H12.9999C12.591 14.7917 12.1989 14.9542 11.9098 15.2433C11.6207 15.5324 11.4583 15.9245 11.4583 16.3334V19.6667C11.4583 20.0756 11.6207 20.4678 11.9098 20.7569C12.1989 21.046 12.591 21.2084 12.9999 21.2084H14.6666C14.6997 21.2084 14.7315 21.2216 14.755 21.245C14.7784 21.2685 14.7916 21.3003 14.7916 21.3334C14.7916 21.3666 14.7784 21.3984 14.755 21.4218C14.7315 21.4452 14.6997 21.4584 14.6666 21.4584H12.9999C12.5247 21.4584 12.069 21.2697 11.733 20.9336L11.3795 21.2872L11.733 20.9336C11.397 20.5976 11.2083 20.1419 11.2083 19.6667V16.3334C11.2083 15.8582 11.397 15.4025 11.733 15.0665C12.069 14.7305 12.5247 14.5417 12.9999 14.5417H22.9999C23.4751 14.5417 23.9308 14.7305 24.2668 15.0665C24.6028 15.4025 24.7916 15.8582 24.7916 16.3334V19.6667C24.7916 20.1419 24.6028 20.5976 24.2668 20.9336C23.9308 21.2697 23.4751 21.4584 22.9999 21.4584H21.3333C21.3001 21.4584 21.2683 21.4452 21.2449 21.4218C21.2214 21.3984 21.2083 21.3666 21.2083 21.3334C21.2083 21.3003 21.2214 21.2685 21.2449 21.245Z" fill="#302D3D" stroke="#302D3D"/>
<path d="M21.3332 15.2917C21.1681 15.2895 21.0104 15.223 20.8936 15.1063C20.7769 14.9895 20.7103 14.8318 20.7082 14.6667V11.9584H15.2915V14.6667C15.2915 14.8325 15.2257 14.9914 15.1084 15.1086C14.9912 15.2259 14.8323 15.2917 14.6665 15.2917C14.5007 15.2917 14.3418 15.2259 14.2246 15.1086C14.1074 14.9914 14.0415 14.8325 14.0415 14.6667V11.75C14.0415 11.4738 14.1513 11.2088 14.3466 11.0135C14.542 10.8181 14.8069 10.7084 15.0832 10.7084H20.9165C21.1928 10.7084 21.4577 10.8181 21.6531 11.0135C21.8484 11.2088 21.9582 11.4738 21.9582 11.75V14.6667C21.956 14.8318 21.8895 14.9895 21.7727 15.1063C21.656 15.223 21.4983 15.2895 21.3332 15.2917Z" fill="#302D3D"/>
<path d="M20.9165 25.2917H15.0832C14.8069 25.2917 14.542 25.1819 14.3466 24.9866C14.1513 24.7912 14.0415 24.5263 14.0415 24.25V18.4167C14.0415 18.1404 14.1513 17.8754 14.3466 17.6801C14.542 17.4847 14.8069 17.375 15.0832 17.375H20.9165C21.1928 17.375 21.4577 17.4847 21.6531 17.6801C21.8484 17.8754 21.9582 18.1404 21.9582 18.4167V24.25C21.9582 24.5263 21.8484 24.7912 21.6531 24.9866C21.4577 25.1819 21.1928 25.2917 20.9165 25.2917ZM15.2915 24.0417H20.7082V18.625H15.2915V24.0417Z" fill="#302D3D"/>
</svg>
