<svg width="14" height="14" viewBox="0 0 14 14" fill="none" xmlns="http://www.w3.org/2000/svg">
<path d="M10.0625 12.1042H3.28421C2.91801 12.1042 2.56664 11.9595 2.30661 11.7017C2.04658 11.4438 1.89895 11.0937 1.89587 10.7275V7.43752C1.89742 7.07033 2.04437 6.71869 2.30456 6.45959C2.56476 6.20049 2.91701 6.05502 3.28421 6.05502H4.45087L6.04337 2.50252C6.15215 2.25971 6.35142 2.06896 6.59876 1.9709C6.84609 1.87284 7.12193 1.87521 7.36754 1.97752C7.69578 2.12294 7.97442 2.36104 8.16924 2.66259C8.36405 2.96414 8.46657 3.31602 8.46421 3.67502V5.11586H10.7975C10.8304 5.11031 10.8639 5.11031 10.8967 5.11586C11.2665 5.18713 11.5957 5.39549 11.8184 5.69919C12.0287 5.97976 12.1208 6.33153 12.075 6.67919L11.4334 10.9317C11.382 11.2584 11.2156 11.556 10.9643 11.7709C10.713 11.9859 10.3932 12.104 10.0625 12.1042ZM5.14504 11.2292H10.0625C10.1841 11.2308 10.3022 11.1887 10.3954 11.1105C10.4885 11.0324 10.5505 10.9234 10.57 10.8034L11.2234 6.56836C11.2314 6.51041 11.2273 6.45142 11.2112 6.39516C11.1951 6.33891 11.1675 6.28664 11.13 6.24169C11.0353 6.1164 10.8987 6.02942 10.745 5.99669H8.02087C7.9627 5.9975 7.90497 5.98654 7.85114 5.96447C7.79731 5.9424 7.7485 5.90968 7.70763 5.86827C7.66677 5.82686 7.6347 5.77762 7.61334 5.7235C7.59199 5.66939 7.5818 5.61151 7.58337 5.55336V3.67502C7.58416 3.48549 7.5293 3.2999 7.42561 3.14126C7.32192 2.98261 7.17395 2.85788 7.00004 2.78252C6.96597 2.76896 6.92794 2.76931 6.89413 2.78349C6.86032 2.79767 6.83341 2.82455 6.81921 2.85836L5.14504 6.58586V11.2292ZM3.28421 6.93002C3.21707 6.92925 3.15045 6.94181 3.0882 6.96697C3.02596 6.99213 2.96932 7.02938 2.92157 7.07659C2.87383 7.12379 2.83592 7.18 2.81006 7.24195C2.78419 7.30391 2.77087 7.37038 2.77087 7.43752V10.7275C2.77164 10.7942 2.78552 10.86 2.81173 10.9213C2.83794 10.9826 2.87596 11.0381 2.92363 11.0847C2.9713 11.1313 3.02768 11.168 3.08955 11.1928C3.15141 11.2176 3.21756 11.23 3.28421 11.2292H4.27004V6.93002H3.28421Z" fill="#191A1C"/>
</svg>
