<svg width="40" height="40" viewBox="0 0 40 40" fill="none" xmlns="http://www.w3.org/2000/svg">
<rect x="1" y="1" width="38" height="38" rx="9" stroke="#604BE8" stroke-opacity="0.3" stroke-width="2"/>
<rect x="2.5" y="2.5" width="35" height="35" rx="7.5" fill="#FAFAFA"/>
<rect x="2.5" y="2.5" width="35" height="35" rx="7.5" stroke="#604BE8"/>
<path d="M20.1763 20L20.5298 19.6465L24.2132 15.9631L24.2194 15.9569L24.2259 15.9509C24.2381 15.9394 24.248 15.9256 24.2548 15.9103C24.2617 15.895 24.2653 15.8784 24.2656 15.8616C24.2659 15.8449 24.2628 15.8282 24.2566 15.8126C24.2503 15.7971 24.2409 15.7829 24.229 15.771C24.2172 15.7592 24.203 15.7498 24.1875 15.7435C24.1719 15.7372 24.1552 15.7342 24.1384 15.7345C24.1217 15.7348 24.1051 15.7384 24.0898 15.7453C24.0744 15.7521 24.0606 15.7619 24.0492 15.7742L24.0432 15.7807L24.0369 15.7869L20.3536 19.4702L20.0001 19.8238L19.6465 19.4702L15.9718 15.7955C15.9486 15.7758 15.919 15.7651 15.8884 15.7656C15.8561 15.7662 15.8252 15.7793 15.8023 15.8022C15.7794 15.8251 15.7662 15.856 15.7657 15.8884C15.7651 15.919 15.7758 15.9486 15.7956 15.9718L19.4703 19.6465L19.8238 20L19.4703 20.3536L15.7872 24.0367L20.1763 20ZM20.1763 20L20.5298 20.3536M20.1763 20L20.5298 20.3536M20.5298 20.3536L24.213 24.0367L20.5298 20.3536ZM20.0001 20.1763L20.3536 20.5298L24.0367 24.2129L20.0001 20.1763ZM20.0001 20.1763L19.6465 20.5298M20.0001 20.1763L19.6465 20.5298M19.6465 20.5298L15.9634 24.2129L19.6465 20.5298ZM15.7506 24.125C15.7506 24.092 15.7637 24.0603 15.7869 24.0369L15.9632 24.2131C15.9398 24.2364 15.9081 24.2495 15.8751 24.2495C15.842 24.2495 15.8104 24.2364 15.787 24.2131C15.7637 24.1897 15.7506 24.1581 15.7506 24.125Z" fill="#302D3D" stroke="#302D3D"/>
</svg>
