<svg width="48" height="48" viewBox="0 0 48 48" fill="none" xmlns="http://www.w3.org/2000/svg">
<rect x="0.5" y="0.5" width="47" height="47" rx="7.5" fill="#FAFAFA"/>
<rect x="0.5" y="0.5" width="47" height="47" rx="7.5" stroke="#DCDCDC"/>
<path d="M22.77 30.3C21.2807 30.3 19.8249 29.8584 18.5865 29.031C17.3482 28.2036 16.3831 27.0275 15.8132 25.6516C15.2433 24.2757 15.0941 22.7616 15.3847 21.301C15.6752 19.8403 16.3924 18.4986 17.4455 17.4455C18.4986 16.3924 19.8403 15.6752 21.301 15.3847C22.7616 15.0941 24.2757 15.2433 25.6516 15.8132C27.0275 16.3831 28.2036 17.3482 29.031 18.5865C29.8584 19.8249 30.3 21.2807 30.3 22.77C30.3 23.7588 30.1052 24.738 29.7268 25.6516C29.3484 26.5652 28.7937 27.3953 28.0945 28.0945C27.3953 28.7937 26.5652 29.3484 25.6516 29.7268C24.738 30.1052 23.7588 30.3 22.77 30.3ZM22.77 16.75C21.5833 16.75 20.4233 17.1019 19.4366 17.7612C18.4499 18.4205 17.6808 19.3575 17.2267 20.4539C16.7726 21.5502 16.6538 22.7566 16.8853 23.9205C17.1168 25.0844 17.6882 26.1535 18.5274 26.9926C19.3665 27.8317 20.4356 28.4032 21.5995 28.6347C22.7633 28.8662 23.9697 28.7474 25.0661 28.2933C26.1624 27.8391 27.0995 27.0701 27.7588 26.0834C28.4181 25.0967 28.77 23.9367 28.77 22.75C28.77 21.1587 28.1379 19.6326 27.0126 18.5074C25.8874 17.3821 24.3613 16.75 22.77 16.75Z" fill="#302D3D"/>
<path d="M32 32.75C31.9014 32.7504 31.8038 32.7312 31.7128 32.6934C31.6218 32.6557 31.5392 32.6001 31.47 32.53L27.34 28.4C27.2075 28.2578 27.1354 28.0697 27.1388 27.8754C27.1422 27.6811 27.2209 27.4958 27.3583 27.3583C27.4958 27.2209 27.6811 27.1422 27.8754 27.1388C28.0697 27.1354 28.2578 27.2075 28.4 27.34L32.53 31.47C32.6704 31.6106 32.7493 31.8012 32.7493 32C32.7493 32.1987 32.6704 32.3893 32.53 32.53C32.4607 32.6001 32.3782 32.6557 32.2872 32.6934C32.1961 32.7312 32.0985 32.7504 32 32.75Z" fill="#302D3D"/>
</svg>
